<svg width="32" height="35" viewBox="0 0 32 35" fill="none" xmlns="http://www.w3.org/2000/svg">
<path d="M6.30183 31.4201L5.31168 31.5601L5.31168 31.5601L6.30183 31.4201ZM2 1V0H0.848636L1.00985 1.14002L2 1ZM30 1L30.9901 1.14002L31.1514 0H30V1ZM25.6982 31.4201L26.6883 31.5601L26.6883 31.5601L25.6982 31.4201ZM7.29198 31.28L2.99015 0.859979L1.00985 1.14002L5.31168 31.5601L7.29198 31.28ZM2 2H16V0H2V2ZM16 2H30V0H16V2ZM29.0099 0.859979L24.708 31.28L26.6883 31.5601L30.9901 1.14002L29.0099 0.859979ZM24.708 31.28C24.5685 32.2666 23.7241 33 22.7277 33V35C24.7205 35 26.4093 33.5332 26.6883 31.5601L24.708 31.28ZM22.7277 33H16V35H22.7277V33ZM16 33H9.27227V35H16V33ZM9.27227 33C8.2759 33 7.43149 32.2666 7.29198 31.28L5.31168 31.5601C5.59071 33.5332 7.27952 35 9.27227 35V33Z" fill="#393939"/>
<line x1="11.7071" y1="11.2929" x2="21.7071" y2="21.2929" stroke="#393939" stroke-width="2"/>
<line x1="11.2929" y1="21.2929" x2="21.2929" y2="11.2929" stroke="#393939" stroke-width="2"/>
</svg>
