<svg width="31" height="36" viewBox="0 0 31 36" fill="none" xmlns="http://www.w3.org/2000/svg">
<g id="Group 9">
<g id="Subtract">
<mask id="path-1-inside-1_8_43" fill="white">
<path fill-rule="evenodd" clip-rule="evenodd" d="M26.1385 1.25802C25.2798 0.563233 24.0205 0.696106 23.3257 1.5548L22.0532 3.12747L28.2724 8.15953L29.5449 6.58686C30.2397 5.72817 30.1068 4.46883 29.2481 3.77405L26.1385 1.25802ZM27.6398 8.9414L21.4206 3.90933L6.23768 22.6741L12.4569 27.7062L27.6398 8.9414Z"/>
</mask>
<path d="M26.1385 1.25802L24.8805 2.81281L26.1385 1.25802ZM22.0532 3.12747L20.4985 1.86945L19.2404 3.42425L20.7952 4.68226L22.0532 3.12747ZM28.2724 8.15953L27.0144 9.71433L28.5692 10.9723L29.8272 9.41754L28.2724 8.15953ZM29.5449 6.58686L27.9901 5.32884L29.5449 6.58686ZM29.2481 3.77405L30.5061 2.21925L29.2481 3.77405ZM27.6398 8.9414L29.1946 10.1994L30.4526 8.64461L28.8978 7.3866L27.6398 8.9414ZM21.4206 3.90933L22.6786 2.35453L21.1238 1.09652L19.8658 2.65132L21.4206 3.90933ZM6.23768 22.6741L4.68288 21.4161L3.42486 22.9709L4.97966 24.2289L6.23768 22.6741ZM12.4569 27.7062L11.1989 29.261L12.7536 30.519L14.0117 28.9642L12.4569 27.7062ZM24.8805 2.81281L24.8805 2.81281L27.3966 -0.296782C25.6792 -1.68635 23.1605 -1.4206 21.7709 0.296781L24.8805 2.81281ZM23.608 4.38548L24.8805 2.81281L21.7709 0.296781L20.4985 1.86945L23.608 4.38548ZM20.7952 4.68226L27.0144 9.71433L29.5305 6.60473L23.3113 1.57267L20.7952 4.68226ZM27.9901 5.32884L26.7176 6.90151L29.8272 9.41754L31.0997 7.84488L27.9901 5.32884ZM27.9901 5.32885L27.9901 5.32884L31.0997 7.84488C32.4893 6.1275 32.2235 3.60882 30.5061 2.21925L27.9901 5.32885ZM24.8805 2.81281L27.9901 5.32885L30.5061 2.21925L27.3966 -0.296782L24.8805 2.81281ZM28.8978 7.3866L22.6786 2.35453L20.1626 5.46413L26.3818 10.4962L28.8978 7.3866ZM7.79247 23.9321L22.9754 5.16735L19.8658 2.65132L4.68288 21.4161L7.79247 23.9321ZM13.7149 26.1514L7.49569 21.1193L4.97966 24.2289L11.1989 29.261L13.7149 26.1514ZM26.085 7.68338L10.9021 26.4482L14.0117 28.9642L29.1946 10.1994L26.085 7.68338Z" fill="#393939" mask="url(#path-1-inside-1_8_43)"/>
</g>
<path id="Polygon 3" d="M9.88388 28.4114L4.62255 31.0295L6.08502 25.3377L9.88388 28.4114Z" stroke="#393939" stroke-width="2"/>
</g>
</svg>
