<svg width="78" height="78" viewBox="0 0 78 78" fill="none" xmlns="http://www.w3.org/2000/svg">
<g id="Group 14">
<g id="Group 13">
<rect id="Rectangle 31" width="78" height="78" rx="16" fill="#F1F1F1"/>
</g>
<g id="Union" filter="url(#filter0_d_22_16)">
<path fill-rule="evenodd" clip-rule="evenodd" d="M38 21H60V57H38V40.5H48.3787L41.3934 47.4853C40.8076 48.0711 40.8076 49.0208 41.3934 49.6066C41.9792 50.1924 42.9289 50.1924 43.5147 49.6066L53.0607 40.0607C53.6464 39.4749 53.6464 38.5251 53.0607 37.9393L43.5147 28.3934C42.9289 27.8076 41.9792 27.8076 41.3934 28.3934C40.8076 28.9792 40.8076 29.9289 41.3934 30.5147L48.3787 37.5H38V21ZM34 37.5V21C34 18.7909 35.7909 17 38 17H60C62.2091 17 64 18.7909 64 21V57C64 59.2091 62.2091 61 60 61H38C35.7909 61 34 59.2091 34 57V40.5H15V37.5H34Z" fill="#FCFCFC"/>
</g>
</g>
<defs>
<filter id="filter0_d_22_16" x="5" y="10" width="69" height="64" filterUnits="userSpaceOnUse" color-interpolation-filters="sRGB">
<feFlood flood-opacity="0" result="BackgroundImageFix"/>
<feColorMatrix in="SourceAlpha" type="matrix" values="0 0 0 0 0 0 0 0 0 0 0 0 0 0 0 0 0 0 127 0" result="hardAlpha"/>
<feOffset dy="3"/>
<feGaussianBlur stdDeviation="5"/>
<feComposite in2="hardAlpha" operator="out"/>
<feColorMatrix type="matrix" values="0 0 0 0 0.595833 0 0 0 0 0.402873 0 0 0 0 0.0283021 0 0 0 0.25 0"/>
<feBlend mode="normal" in2="BackgroundImageFix" result="effect1_dropShadow_22_16"/>
<feBlend mode="normal" in="SourceGraphic" in2="effect1_dropShadow_22_16" result="shape"/>
</filter>
</defs>
</svg>
