<svg width="78" height="78" viewBox="0 0 78 78" fill="none" xmlns="http://www.w3.org/2000/svg">
<g id="Group 12">
<rect id="Rectangle 31" width="78" height="78" rx="16" fill="#F1F1F1"/>
<g id="Group 10">
<g id="Union" filter="url(#filter0_d_17_2)">
<path fill-rule="evenodd" clip-rule="evenodd" d="M37.5 39.1392C43.0613 39.1392 47.5697 34.6309 47.5697 29.0696C47.5697 23.5083 43.0613 19 37.5 19C31.9387 19 27.4304 23.5083 27.4304 29.0696C27.4304 34.6309 31.9387 39.1392 37.5 39.1392ZM37.5 39.1392H45.9304C51.4917 39.1392 56 43.6476 56 49.2089C56 54.7702 51.4917 59.2785 45.9304 59.2785H29.0696C23.5083 59.2785 19 54.7702 19 49.2089C19 43.6476 23.5083 39.1392 29.0696 39.1392H37.5Z" fill="white" fill-opacity="0.82" shape-rendering="crispEdges"/>
</g>
<g id="Union_2" filter="url(#filter1_d_17_2)">
<path fill-rule="evenodd" clip-rule="evenodd" d="M60 21H56V27H50V31H56V37H60V31H66V27H60V21Z" fill="#FCFCFC"/>
</g>
</g>
</g>
<defs>
<filter id="filter0_d_17_2" x="9" y="12" width="57" height="60.2785" filterUnits="userSpaceOnUse" color-interpolation-filters="sRGB">
<feFlood flood-opacity="0" result="BackgroundImageFix"/>
<feColorMatrix in="SourceAlpha" type="matrix" values="0 0 0 0 0 0 0 0 0 0 0 0 0 0 0 0 0 0 127 0" result="hardAlpha"/>
<feOffset dy="3"/>
<feGaussianBlur stdDeviation="5"/>
<feComposite in2="hardAlpha" operator="out"/>
<feColorMatrix type="matrix" values="0 0 0 0 0.595833 0 0 0 0 0.402873 0 0 0 0 0.0283021 0 0 0 0.25 0"/>
<feBlend mode="normal" in2="BackgroundImageFix" result="effect1_dropShadow_17_2"/>
<feBlend mode="normal" in="SourceGraphic" in2="effect1_dropShadow_17_2" result="shape"/>
</filter>
<filter id="filter1_d_17_2" x="40" y="14" width="36" height="36" filterUnits="userSpaceOnUse" color-interpolation-filters="sRGB">
<feFlood flood-opacity="0" result="BackgroundImageFix"/>
<feColorMatrix in="SourceAlpha" type="matrix" values="0 0 0 0 0 0 0 0 0 0 0 0 0 0 0 0 0 0 127 0" result="hardAlpha"/>
<feOffset dy="3"/>
<feGaussianBlur stdDeviation="5"/>
<feComposite in2="hardAlpha" operator="out"/>
<feColorMatrix type="matrix" values="0 0 0 0 0 0 0 0 0 0 0 0 0 0 0 0 0 0 0.25 0"/>
<feBlend mode="normal" in2="BackgroundImageFix" result="effect1_dropShadow_17_2"/>
<feBlend mode="normal" in="SourceGraphic" in2="effect1_dropShadow_17_2" result="shape"/>
</filter>
</defs>
</svg>
