<svg width="30" height="30" viewBox="0 0 30 30" fill="none" xmlns="http://www.w3.org/2000/svg">
<g id="Union">
<mask id="path-1-inside-1_2_27" fill="white">
<path fill-rule="evenodd" clip-rule="evenodd" d="M21.922 19.1156C23.3336 17.1245 24.1527 14.6858 24.1257 12.0587C24.0575 5.43067 18.6291 0.112894 12.0011 0.181099C5.37307 0.249304 0.0552915 5.67767 0.123497 12.3057C0.191702 18.9337 5.62007 24.2515 12.2481 24.1833C14.8049 24.157 17.1667 23.333 19.0996 21.9503L27.0772 29.7653L29.8764 26.9079L21.922 19.1156Z"/>
</mask>
<path d="M21.922 19.1156L19.4746 17.3806L17.9948 19.4681L19.8227 21.2587L21.922 19.1156ZM19.0996 21.9503L21.199 19.8072L19.4011 18.0459L17.3541 19.5103L19.0996 21.9503ZM27.0772 29.7653L24.9778 31.9083L27.1208 34.0077L29.2202 31.8647L27.0772 29.7653ZM29.8764 26.9079L32.0194 29.0073L34.1188 26.8643L31.9757 24.7649L29.8764 26.9079ZM21.1258 12.0896C21.1462 14.0637 20.5328 15.888 19.4746 17.3806L24.3694 20.8506C26.1343 18.3611 27.1593 15.3079 27.1255 12.0278L21.1258 12.0896ZM12.032 3.18094C17.0032 3.12978 21.0747 7.11831 21.1258 12.0896L27.1255 12.0278C27.0403 3.74304 20.255 -2.904 11.9702 -2.81874L12.032 3.18094ZM3.12334 12.2748C3.07218 7.30356 7.06071 3.2321 12.032 3.18094L11.9702 -2.81874C3.68544 -2.73349 -2.9616 4.05177 -2.87634 12.3366L3.12334 12.2748ZM12.2172 21.1834C7.24596 21.2346 3.17449 17.2461 3.12334 12.2748L-2.87634 12.3366C-2.79109 20.6213 3.99417 27.2684 12.279 27.1831L12.2172 21.1834ZM17.3541 19.5103C15.9056 20.5466 14.1389 21.1637 12.2172 21.1834L12.279 27.1831C15.4709 27.1503 18.4279 26.1194 20.8451 24.3902L17.3541 19.5103ZM29.1766 27.6223L21.199 19.8072L17.0003 24.0933L24.9778 31.9083L29.1766 27.6223ZM27.7333 24.8085L24.9342 27.6659L29.2202 31.8647L32.0194 29.0073L27.7333 24.8085ZM19.8227 21.2587L27.777 29.0509L31.9757 24.7649L24.0214 16.9726L19.8227 21.2587Z" fill="#505050" mask="url(#path-1-inside-1_2_27)"/>
</g>
</svg>
