<svg width="26" height="29" viewBox="0 0 26 29" fill="none" xmlns="http://www.w3.org/2000/svg">
<g id="Union">
<mask id="path-1-inside-1_2_27" fill="white">
<path fill-rule="evenodd" clip-rule="evenodd" d="M19.8067 21.3626C22.4785 19.1341 24.1643 15.7679 24.1257 12.0176C24.0575 5.3896 18.6291 0.0718169 12.0011 0.140022C5.37307 0.208228 0.0552915 5.63659 0.123497 12.2646C0.191702 18.8926 5.62007 24.2104 12.2481 24.1422C14.3957 24.1201 16.4058 23.5352 18.1396 22.5292L24.4897 28.7499L25.8893 27.3212L19.8067 21.3626Z"/>
</mask>
<path d="M19.8067 21.3626L18.5257 19.8267L16.8271 21.2434L18.4071 22.7912L19.8067 21.3626ZM18.1396 22.5292L19.5392 21.1005L18.4521 20.0355L17.1358 20.7993L18.1396 22.5292ZM24.4897 28.7499L23.0901 30.1786L24.5188 31.5782L25.9184 30.1495L24.4897 28.7499ZM25.8893 27.3212L27.318 28.7208L28.7176 27.2921L27.2889 25.8925L25.8893 27.3212ZM22.1258 12.0382C22.1579 15.1627 20.7562 17.9663 18.5257 19.8267L21.0878 22.8984C24.2009 20.3019 26.1706 16.3731 26.1256 11.997L22.1258 12.0382ZM12.0217 2.13992C17.5452 2.08308 22.0689 6.51469 22.1258 12.0382L26.1256 11.997C26.046 4.26451 19.713 -1.93944 11.9805 -1.85987L12.0217 2.13992ZM2.12339 12.244C2.06655 6.72052 6.49816 2.19676 12.0217 2.13992L11.9805 -1.85987C4.24798 -1.7803 -1.95597 4.55266 -1.8764 12.2852L2.12339 12.244ZM12.2275 22.1423C6.704 22.1992 2.18023 17.7675 2.12339 12.244L-1.8764 12.2852C-1.79683 20.0177 4.53613 26.2217 12.2687 26.1421L12.2275 22.1423ZM17.1358 20.7993C15.693 21.6365 14.0206 22.1239 12.2275 22.1423L12.2687 26.1421C14.7708 26.1164 17.1185 25.434 19.1434 24.259L17.1358 20.7993ZM25.8893 27.3212L19.5392 21.1005L16.74 23.9578L23.0901 30.1786L25.8893 27.3212ZM24.4606 25.9216L23.061 27.3503L25.9184 30.1495L27.318 28.7208L24.4606 25.9216ZM18.4071 22.7912L24.4897 28.7499L27.2889 25.8925L21.2063 19.9339L18.4071 22.7912Z" fill="#393939" mask="url(#path-1-inside-1_2_27)"/>
</g>
</svg>
